# xmcd
#
# Track frame offsets: 
#        150
#        23895
#        43085
#        60365
#        78383
#        93590
#        112450
#        128995
#        148258
#        165748
#        182670
#        199448
#        215485
#        231438
#        249880
#        268285
#        288975
#        307278
#
# Disc length: 4327 seconds
#
# Revision: 1
# Processed by: cddbd v1.5.2PL0 Copyright (c) Steve Scherf et al.
# Submitted via: ExactAudioCopyFreeDBPlugin 1.0
#
DISCID=1f10e512
DTITLE=Various / La Compil' Vol3
DYEAR=1990
DGENRE=Pop
TTITLE0=Claude François / Mégamix
TTITLE1=Chris Rea / That's What They Always Say
TTITLE2=Simply Red / A New Flame
TTITLE3=New Kids On The Block / You Got It (The Right Stuff)
TTITLE4=Technotronic / Get Up (Before the Night to Over)
TTITLE5=Chic / Mégachic (édit)
TTITLE6=Gold / Îles d'Aran
TTITLE7=Les Vagabonds / Le Temps des yéyés
TTITLE8=Prince / Scandalous
TTITLE9=Nick Kamen / I Promised Myself
TTITLE10=Bobby Brown / Every Little Step
TTITLE11=Début De Soirée / Belles belles belles
TTITLE12=François Valérie / C'est la même chanson
TTITLE13=Kassav / Wep Wep
TTITLE14=FPI Project / Rich in Paradise (Going Back to My Roots)
TTITLE15=Phil Collins / I Wish It Would Rain Down
TTITLE16=Herbert Léonard / Finir la nuit ensemble
TTITLE17=808 State / Pacific - 707
EXTD=
EXTT0=
EXTT1=
EXTT2=
EXTT3=
EXTT4=
EXTT5=
EXTT6=
EXTT7=
EXTT8=
EXTT9=
EXTT10=
EXTT11=
EXTT12=
EXTT13=
EXTT14=
EXTT15=
EXTT16=
EXTT17=
PLAYORDER=
